<?xml version="1.0" standalone="no"?>
<!DOCTYPE svg PUBLIC "-//W3C//DTD SVG 20010904//EN"
 "http://www.w3.org/TR/2001/REC-SVG-20010904/DTD/svg10.dtd">
<svg version="1.0" xmlns="http://www.w3.org/2000/svg"
 width="1126.000000pt" height="1126.000000pt" viewBox="0 0 1126.000000 1126.000000"
 preserveAspectRatio="xMidYMid meet">
<metadata>
Created by potrace 1.14, written by Peter Selinger 2001-2017
</metadata>
<g transform="translate(0.000000,1126.000000) scale(0.100000,-0.100000)"
fill="#000000" stroke="none">
<path d="M6194 9952 c-32 -26 -72 -59 -89 -73 -16 -15 -127 -107 -245 -204
-118 -98 -229 -190 -245 -204 -17 -14 -50 -41 -73 -59 -22 -19 -51 -43 -64
-54 -42 -36 -63 -53 -178 -147 -63 -52 -117 -97 -120 -100 -3 -3 -30 -26 -60
-51 -30 -25 -64 -53 -75 -62 -11 -9 -65 -54 -120 -99 -55 -45 -120 -99 -145
-120 -25 -20 -124 -103 -220 -183 l-175 -145 -1 -1163 c-1 -640 -4 -1208 -8
-1263 -17 -294 -38 -367 -136 -485 -62 -75 -216 -219 -223 -209 -2 2 -17 22
-33 44 -274 361 -472 812 -534 1215 -5 36 -12 75 -14 87 -25 122 -26 564 -2
688 2 11 7 43 11 70 9 65 13 86 19 110 2 11 11 52 20 90 86 373 272 744 530
1060 53 64 293 306 372 373 85 73 252 203 335 259 38 27 69 50 69 53 0 3 -18
25 -40 50 -22 25 -40 48 -40 51 0 15 -34 19 -49 6 -9 -7 -45 -30 -81 -52 -200
-119 -520 -347 -720 -514 -111 -92 -338 -312 -430 -416 -212 -240 -424 -589
-546 -902 -45 -115 -117 -338 -127 -398 -3 -17 -15 -75 -26 -130 -11 -55 -22
-125 -26 -155 -3 -30 -8 -66 -10 -80 -20 -126 -21 -517 -1 -637 3 -15 8 -53
11 -83 5 -44 33 -194 50 -270 28 -128 86 -309 144 -453 52 -130 178 -382 236
-472 68 -106 152 -233 166 -250 9 -11 52 -63 95 -115 293 -355 701 -645 1154
-820 74 -29 144 -56 155 -61 22 -9 185 -57 219 -63 11 -3 59 -13 106 -24 93
-22 129 -29 205 -38 28 -3 55 -7 62 -9 81 -26 677 -27 819 -1 10 2 40 6 65 10
472 69 995 263 1366 508 297 196 573 464 866 841 126 162 125 160 100 183 -11
10 -41 39 -66 63 l-46 44 -63 -54 c-244 -212 -553 -422 -817 -553 -110 -55
-315 -141 -386 -162 -207 -60 -307 -84 -415 -100 -19 -3 -46 -7 -60 -9 -28 -5
-106 -15 -160 -21 -79 -9 -470 -12 -475 -4 -3 5 -8 240 -10 522 -5 486 -10
1021 -20 2028 -9 936 -17 1738 -20 2078 -2 203 1 352 6 352 5 0 42 -15 81 -34
157 -72 186 -85 268 -119 47 -20 128 -52 180 -72 52 -20 104 -41 115 -45 39
-16 201 -69 305 -99 215 -64 243 -70 490 -116 28 -5 95 -15 142 -21 55 -6 58
-4 173 104 39 37 136 128 215 202 80 74 181 169 225 211 44 42 99 93 122 115
l42 39 -25 55 c-15 30 -30 65 -35 78 -8 20 -15 22 -96 22 -188 2 -492 15 -543
25 -8 2 -44 6 -80 10 -236 24 -486 85 -845 207 -137 46 -215 75 -393 144 -34
13 -64 24 -65 24 -2 0 -30 -21 -63 -48z m-418 -979 c1 -175 6 -662 9 -1083 4
-421 8 -931 10 -1135 2 -203 6 -721 10 -1150 3 -429 8 -895 9 -1036 l3 -256
-31 4 c-136 15 -339 59 -506 110 -274 83 -558 234 -790 420 -88 71 -326 296
-340 323 -6 12 8 29 57 70 37 30 71 60 77 66 6 5 67 59 136 119 69 61 215 200
326 310 399 397 481 530 510 825 4 41 8 576 8 1188 l1 1114 40 36 c39 36 107
95 210 182 56 47 146 126 209 182 22 20 43 35 45 32 2 -2 5 -147 7 -321z"/>
<path d="M5597 3074 c-1 -1 -112 -5 -247 -8 -135 -3 -272 -8 -305 -11 -104 -7
-209 -16 -240 -20 -16 -2 -52 -7 -80 -10 -93 -11 -120 -16 -223 -40 -149 -36
-246 -87 -278 -147 -28 -54 -5 -155 49 -213 10 -11 23 -28 28 -37 8 -16 5 -18
-28 -19 -42 -1 -75 -3 -208 -13 -49 -4 -112 -9 -140 -11 -137 -9 -244 -17
-285 -20 -60 -5 -188 -14 -280 -20 -41 -3 -105 -7 -142 -10 -125 -9 -202 -15
-288 -20 -47 -3 -114 -8 -150 -11 -64 -6 -103 -9 -190 -14 l-45 -2 35 -8 c19
-4 53 -10 75 -13 35 -5 476 -79 548 -92 15 -3 37 -7 50 -9 42 -7 142 -26 167
-31 14 -3 59 -12 100 -20 612 -118 1267 -291 1677 -442 30 -11 -87 86 -382
317 -314 246 -496 403 -482 416 3 3 30 7 59 9 29 2 85 6 123 9 39 3 108 8 155
11 47 3 112 8 145 10 33 3 94 7 135 10 41 3 100 7 130 10 30 2 96 7 145 10 50
3 115 8 145 10 30 2 93 7 140 10 47 3 112 8 145 10 65 5 151 12 285 20 47 3
105 8 128 10 24 2 92 7 150 10 59 4 127 8 152 10 25 2 83 7 130 10 47 3 108 8
135 10 28 3 91 7 140 10 50 3 115 7 145 10 30 3 87 7 125 10 162 10 251 16
284 20 20 2 86 6 146 9 61 4 126 9 145 11 19 3 80 7 135 10 55 3 123 7 150 10
28 2 91 7 140 10 50 3 113 8 140 10 28 3 93 7 145 11 52 3 111 7 130 9 19 2
85 6 145 10 176 12 185 12 285 20 52 5 114 8 137 9 59 1 54 16 -4 17 -27 1
-59 3 -73 4 -14 1 -76 5 -137 9 -62 4 -132 9 -155 11 -24 2 -92 7 -153 10 -60
3 -132 8 -160 10 -27 2 -97 7 -155 10 -58 3 -130 7 -160 9 -30 3 -107 7 -170
11 -201 10 -293 15 -365 20 -38 3 -126 7 -195 10 -69 3 -165 8 -215 10 -49 2
-164 7 -255 10 -91 4 -203 8 -250 10 -148 7 -979 22 -983 19z"/>
<path d="M5220 1819 c0 -5 4 -9 9 -9 19 0 299 -289 364 -375 216 -289 249
-536 101 -770 -38 -60 -45 -68 -187 -216 -130 -133 -131 -134 -180 -216 -96
-158 -39 -244 153 -229 375 28 843 361 937 666 24 77 23 228 -2 300 -57 168
-185 316 -410 472 -86 60 -107 73 -257 153 -167 90 -528 243 -528 224z"/>
</g>
</svg>
